<svg xmlns="http://www.w3.org/2000/svg" xmlns:xlink="http://www.w3.org/1999/xlink" width="344" zoomAndPan="magnify" viewBox="0 0 258 155.999994" height="208" preserveAspectRatio="xMidYMid meet" version="1.0"><defs><g/></defs><g fill="#000000" fill-opacity="1"><g transform="translate(8.035149, 92.952743)"><g><path d="M 10.671875 0 L 10.671875 -27.59375 L 1.25 -27.59375 L 1.25 -32.359375 L 26.0625 -32.359375 L 26.0625 -27.59375 L 16.59375 -27.59375 L 16.59375 0 Z M 10.671875 0 "/></g></g></g><g fill="#000000" fill-opacity="1"><g transform="translate(48.016792, 92.952743)"><g><path d="M 3.140625 0 L 3.140625 -32.359375 L 15.015625 -32.359375 C 17.609375 -32.359375 19.742188 -31.914062 21.421875 -31.03125 C 23.097656 -30.15625 24.351562 -28.96875 25.1875 -27.46875 C 26.019531 -25.976562 26.4375 -24.328125 26.4375 -22.515625 C 26.4375 -20.535156 25.921875 -18.726562 24.890625 -17.09375 C 23.859375 -15.46875 22.25 -14.285156 20.0625 -13.546875 L 26.765625 0 L 19.96875 0 L 13.953125 -12.75 L 9.0625 -12.75 L 9.0625 0 Z M 9.0625 -17.09375 L 14.65625 -17.09375 C 16.625 -17.09375 18.066406 -17.570312 18.984375 -18.53125 C 19.910156 -19.488281 20.375 -20.753906 20.375 -22.328125 C 20.375 -23.867188 19.921875 -25.097656 19.015625 -26.015625 C 18.109375 -26.941406 16.640625 -27.40625 14.609375 -27.40625 L 9.0625 -27.40625 Z M 9.0625 -17.09375 "/></g></g></g><g fill="#000000" fill-opacity="1"><g transform="translate(89.477434, 92.952743)"><g><path d="M 1.0625 0 L 12.890625 -32.359375 L 19.546875 -32.359375 L 31.375 0 L 25.09375 0 L 22.515625 -7.484375 L 9.890625 -7.484375 L 7.25 0 Z M 11.515625 -12.109375 L 20.890625 -12.109375 L 16.171875 -25.5625 Z M 11.515625 -12.109375 "/></g></g></g><g fill="#000000" fill-opacity="1"><g transform="translate(134.543143, 92.952743)"><g><path d="M 3.140625 0 L 3.140625 -32.359375 L 14.1875 -32.359375 C 17.976562 -32.359375 21.097656 -31.6875 23.546875 -30.34375 C 25.992188 -29 27.8125 -27.117188 29 -24.703125 C 30.1875 -22.285156 30.78125 -19.441406 30.78125 -16.171875 C 30.78125 -12.910156 30.1875 -10.066406 29 -7.640625 C 27.8125 -5.222656 25.992188 -3.34375 23.546875 -2 C 21.097656 -0.664062 17.976562 0 14.1875 0 Z M 9.0625 -5.078125 L 13.90625 -5.078125 C 16.625 -5.078125 18.765625 -5.515625 20.328125 -6.390625 C 21.898438 -7.273438 23.023438 -8.539062 23.703125 -10.1875 C 24.390625 -11.832031 24.734375 -13.828125 24.734375 -16.171875 C 24.734375 -18.484375 24.390625 -20.472656 23.703125 -22.140625 C 23.023438 -23.804688 21.898438 -25.082031 20.328125 -25.96875 C 18.765625 -26.863281 16.625 -27.3125 13.90625 -27.3125 L 9.0625 -27.3125 Z M 9.0625 -5.078125 "/></g></g></g><g fill="#000000" fill-opacity="1"><g transform="translate(180.071032, 92.952743)"><g><path d="M 3.140625 0 L 3.140625 -32.359375 L 24.265625 -32.359375 L 24.265625 -27.59375 L 9.0625 -27.59375 L 9.0625 -18.71875 L 22.875 -18.71875 L 22.875 -14.09375 L 9.0625 -14.09375 L 9.0625 -4.765625 L 24.265625 -4.765625 L 24.265625 0 Z M 3.140625 0 "/></g></g></g><g fill="#000000" fill-opacity="1"><g transform="translate(219.451819, 92.952743)"><g><path d="M 1.578125 0 L 11.6875 -16.359375 L 1.4375 -32.359375 L 8.234375 -32.359375 L 15.484375 -21.078125 L 22.140625 -32.359375 L 28.796875 -32.359375 L 18.671875 -16.078125 L 29.03125 0 L 22.234375 0 L 14.875 -11.421875 L 8.234375 0 Z M 1.578125 0 "/></g></g></g></svg>