<svg xmlns="http://www.w3.org/2000/svg" xmlns:xlink="http://www.w3.org/1999/xlink" width="500" zoomAndPan="magnify" viewBox="0 0 375 374.999991" height="500" preserveAspectRatio="xMidYMid meet" version="1.0"><defs><g/></defs><g fill="#000000" fill-opacity="1"><g transform="translate(14.827961, 208.874986)"><g><path d="M 15.25 0 L 15.25 -39.40625 L 1.78125 -39.40625 L 1.78125 -46.203125 L 37.21875 -46.203125 L 37.21875 -39.40625 L 23.6875 -39.40625 L 23.6875 0 Z M 15.25 0 "/></g></g></g><g fill="#000000" fill-opacity="1"><g transform="translate(71.910658, 208.874986)"><g><path d="M 4.484375 0 L 4.484375 -46.203125 L 21.453125 -46.203125 C 25.148438 -46.203125 28.195312 -45.570312 30.59375 -44.3125 C 32.988281 -43.0625 34.78125 -41.367188 35.96875 -39.234375 C 37.15625 -37.097656 37.75 -34.734375 37.75 -32.140625 C 37.75 -29.328125 37.007812 -26.753906 35.53125 -24.421875 C 34.0625 -22.085938 31.765625 -20.394531 28.640625 -19.34375 L 38.21875 0 L 28.515625 0 L 19.9375 -18.21875 L 12.9375 -18.21875 L 12.9375 0 Z M 12.9375 -24.421875 L 20.921875 -24.421875 C 23.734375 -24.421875 25.800781 -25.101562 27.125 -26.46875 C 28.445312 -27.832031 29.109375 -29.632812 29.109375 -31.875 C 29.109375 -34.070312 28.457031 -35.832031 27.15625 -37.15625 C 25.863281 -38.476562 23.765625 -39.140625 20.859375 -39.140625 L 12.9375 -39.140625 Z M 12.9375 -24.421875 "/></g></g></g><g fill="#000000" fill-opacity="1"><g transform="translate(131.104985, 208.874986)"><g><path d="M 1.515625 0 L 18.40625 -46.203125 L 27.921875 -46.203125 L 44.8125 0 L 35.84375 0 L 32.140625 -10.6875 L 14.125 -10.6875 L 10.359375 0 Z M 16.4375 -17.296875 L 29.828125 -17.296875 L 23.09375 -36.5 Z M 16.4375 -17.296875 "/></g></g></g><g fill="#000000" fill-opacity="1"><g transform="translate(195.446389, 208.874986)"><g><path d="M 4.484375 0 L 4.484375 -46.203125 L 20.265625 -46.203125 C 25.671875 -46.203125 30.125 -45.242188 33.625 -43.328125 C 37.125 -41.410156 39.71875 -38.722656 41.40625 -35.265625 C 43.101562 -31.816406 43.953125 -27.757812 43.953125 -23.09375 C 43.953125 -18.4375 43.101562 -14.378906 41.40625 -10.921875 C 39.71875 -7.460938 37.125 -4.773438 33.625 -2.859375 C 30.125 -0.953125 25.671875 0 20.265625 0 Z M 12.9375 -7.265625 L 19.859375 -7.265625 C 23.734375 -7.265625 26.789062 -7.890625 29.03125 -9.140625 C 31.28125 -10.390625 32.890625 -12.191406 33.859375 -14.546875 C 34.828125 -16.898438 35.3125 -19.75 35.3125 -23.09375 C 35.3125 -26.394531 34.828125 -29.234375 33.859375 -31.609375 C 32.890625 -33.984375 31.28125 -35.804688 29.03125 -37.078125 C 26.789062 -38.359375 23.734375 -39 19.859375 -39 L 12.9375 -39 Z M 12.9375 -7.265625 "/></g></g></g><g fill="#000000" fill-opacity="1"><g transform="translate(260.447682, 208.874986)"><g><path d="M 4.484375 0 L 4.484375 -46.203125 L 34.65625 -46.203125 L 34.65625 -39.40625 L 12.9375 -39.40625 L 12.9375 -26.734375 L 32.671875 -26.734375 L 32.671875 -20.125 L 12.9375 -20.125 L 12.9375 -6.796875 L 34.65625 -6.796875 L 34.65625 0 Z M 4.484375 0 "/></g></g></g><g fill="#000000" fill-opacity="1"><g transform="translate(316.672524, 208.874986)"><g><path d="M 2.25 0 L 16.703125 -23.359375 L 2.046875 -46.203125 L 11.75 -46.203125 L 22.109375 -30.09375 L 31.609375 -46.203125 L 41.125 -46.203125 L 26.65625 -22.96875 L 41.453125 0 L 31.75 0 L 21.25 -16.296875 L 11.75 0 Z M 2.25 0 "/></g></g></g></svg>